<svg width="68" height="61" viewBox="0 0 68 61" fill="none" xmlns="http://www.w3.org/2000/svg">
<path d="M44.4451 57.826C49.7884 55.1298 54.1103 50.4472 56.1533 44.3926C56.244 44.1242 56.3044 43.8498 56.383 43.5754C56.3951 43.5456 56.4132 43.5217 56.4253 43.4919C56.4616 43.4024 56.4737 43.313 56.4797 43.2175C57.9183 38.0697 57.4952 32.8085 55.567 28.1617C55.3554 27.6189 55.1197 27.076 54.8477 26.5392C54.5757 26.0023 54.2735 25.4893 53.9591 25.0002C51.3479 20.6994 47.3344 17.2218 42.3054 15.2772C42.2207 15.2235 42.1301 15.1757 42.0273 15.1459C41.9971 15.14 41.9608 15.14 41.9306 15.128C41.6647 15.0266 41.4108 14.9133 41.1327 14.8238C34.9976 12.8136 28.6146 13.428 23.229 16.0407C23.2108 16.0466 23.1987 16.0407 23.1806 16.0526C23.1625 16.0586 23.1443 16.0765 23.1262 16.0824C20.2974 17.4663 17.7587 19.4109 15.6734 21.8089C15.619 21.8626 15.5766 21.9163 15.5343 21.9759C13.6545 24.177 12.1434 26.748 11.1702 29.641C9.90087 33.4109 9.67118 37.2763 10.3119 40.9448C10.3119 40.9925 10.3179 41.0343 10.33 41.082C11.134 45.5499 13.2495 49.7135 16.3927 53.0301C16.4289 53.0718 16.4591 53.1016 16.5015 53.1374C19.0945 55.8336 22.3707 57.9632 26.1908 59.2158C29.1284 60.1762 32.1265 60.5222 35.0399 60.3492C35.1064 60.3492 35.1729 60.3492 35.2394 60.3492C38.4369 60.1344 41.5377 59.2874 44.3545 57.8796C44.3726 57.8677 44.3968 57.8618 44.4149 57.8558C44.427 57.8498 44.4391 57.8379 44.4512 57.8319M43.5868 56.3466C42.5411 56.8537 41.4289 57.1519 40.2865 57.2891C43.2181 55.0283 45.5815 52.3023 47.4009 49.3914C48.9966 49.457 50.5198 49.1647 51.904 48.4847C52.1277 48.3713 52.3271 48.2162 52.5387 48.091C50.3748 51.6879 47.2377 54.5213 43.5868 56.3466ZM19.4391 22.0117C23.2713 20.6159 27.176 20.2043 30.8692 20.4489C30.301 21.6836 29.9142 23.0914 29.7207 24.6483C29.5515 26.0083 29.5455 27.434 29.6905 28.8835C25.3929 30.0407 21.2222 31.7706 17.6378 34.0373C17.3356 31.866 17.3054 29.7365 17.5774 27.7143C17.8736 25.5371 18.5203 23.6282 19.433 22.0117M41.4531 16.7982C42.5592 17.2098 43.6231 17.6811 44.6204 18.2478C44.971 18.5937 45.2974 18.9576 45.6117 19.3274C44.8864 19.3453 44.1912 19.5064 43.5566 19.8225C42.8675 20.1625 42.2872 20.6696 41.8158 21.3019C39.4222 20.2461 36.7203 19.4467 33.8431 19.0172C34.4778 18.3014 35.2091 17.7109 36.0493 17.2933C37.6209 16.5179 39.4826 16.3509 41.4471 16.7982M42.5774 23.6461C44.8501 24.8272 46.6876 26.2171 47.9509 27.6547C46.1859 27.3504 44.288 27.1834 42.3054 27.1715C42.2268 26.5034 42.2147 25.8592 42.2631 25.2388C42.3054 24.6483 42.4263 24.1293 42.5834 23.6461M49.0752 26.2529C47.6668 24.702 45.7266 23.2703 43.4357 22.0714C43.7016 21.7791 43.9918 21.5226 44.3363 21.3556C45.11 20.9738 46.0469 20.9798 47.0503 21.284C48.0899 22.9244 48.8032 24.6542 49.0752 26.2529ZM54.4548 35.8626C54.1042 36.8409 53.5481 37.5865 52.7744 37.9683C52.4299 38.1353 52.0491 38.2188 51.6562 38.2486C52.0551 35.7194 52.0551 33.3334 51.6381 31.2874C52.7684 32.4565 53.7476 34.0552 54.4608 35.8626M49.8791 37.9862C49.3956 37.8191 48.8999 37.6044 48.3861 37.2823C47.8482 36.9482 47.3404 36.5247 46.8387 36.0594C48.0174 34.4847 49.045 32.892 49.8489 31.3172C50.2599 33.1783 50.278 35.4868 49.8731 37.9862M45.654 34.8008C44.971 33.9717 44.3424 33.0352 43.8165 32.0032C43.2906 30.9712 42.8917 29.9154 42.6257 28.8775C44.8017 28.9133 46.8629 29.1459 48.7367 29.5635C47.9509 31.2934 46.9234 33.059 45.654 34.8008ZM40.8426 28.8894C41.1388 30.1838 41.6163 31.5021 42.2631 32.7727C42.9098 34.0432 43.6896 35.2064 44.56 36.2086C42.7043 38.517 40.4981 40.748 38.044 42.7642C36.4422 41.1118 35.0278 39.1374 33.8975 36.9124C32.7672 34.6875 31.9935 32.379 31.6127 30.1242C34.7195 29.3905 37.8627 28.9729 40.8486 28.8894M45.7749 37.4433C46.3129 37.9325 46.875 38.3679 47.4553 38.7318C48.1625 39.1732 48.8636 39.4894 49.5467 39.6981C48.9543 42.2691 47.9267 44.9772 46.4458 47.578C45.0798 47.3692 43.6593 46.8741 42.2268 46.0629C41.1992 45.4783 40.214 44.7565 39.271 43.9274C41.6949 41.9171 43.9072 39.722 45.7749 37.4374M51.3177 39.9904C52.1095 40.0023 52.8711 39.8413 53.5602 39.5013C54.1949 39.1851 54.7389 38.7318 55.1922 38.1711C55.3071 38.6423 55.4038 39.1195 55.4763 39.6027C55.3373 40.7301 55.0834 41.8515 54.7631 42.9729C53.9471 44.7923 52.7019 46.1702 51.1303 46.9516C50.2901 47.3692 49.3714 47.5959 48.4103 47.6675C49.7764 45.1323 50.7495 42.5196 51.3237 39.9964M54.8477 32.7071C53.9652 31.2218 52.9134 29.9572 51.7348 29.0565L52.8349 28.5136L53.6509 28.108C53.669 28.1438 53.6811 28.1736 53.6992 28.2094C54.3581 29.7245 54.7631 31.2635 54.8537 32.7071M52.8772 26.575L50.9611 27.5234C50.9369 26.056 50.538 24.4634 49.861 22.8766C50.9792 23.8132 51.9826 25.0479 52.8167 26.4795C52.8349 26.5153 52.853 26.5452 52.8711 26.5809M41.0119 22.8826C40.7701 23.5507 40.6069 24.2963 40.5464 25.1135C40.492 25.7876 40.5041 26.4915 40.5827 27.2073C37.6088 27.3147 34.4959 27.7382 31.4132 28.454C31.3044 27.2192 31.3225 26.0143 31.4616 24.857C31.661 23.2405 32.1083 21.8268 32.749 20.6278C35.7531 21.0155 38.5699 21.8089 41.0119 22.8766M29.9383 30.5537C30.3615 32.9337 31.1775 35.3496 32.3561 37.6819C33.5409 40.0083 35.0218 42.0901 36.6961 43.8438C33.1601 46.546 29.213 48.765 25.2116 50.137C23.4889 48.2222 21.9354 45.9913 20.654 43.468C19.3907 40.9866 18.4961 38.4156 17.9642 35.8745C21.47 33.5303 25.6226 31.7288 29.9323 30.5477M37.911 45.019C39.0051 46.0032 40.1596 46.8622 41.3624 47.5482C42.7466 48.3296 44.1308 48.8664 45.4787 49.1587C43.4659 52.2307 40.764 55.0641 37.3308 57.2593C33.6738 56.7821 29.8477 54.7301 26.5051 51.4791C30.4944 49.9998 34.3931 47.7331 37.905 45.0249M35.2817 15.7544C33.8975 16.4403 32.749 17.4723 31.8484 18.7727C28.397 18.4685 24.7703 18.7071 21.1859 19.6734C21.9898 18.8443 22.8965 18.1463 23.918 17.6334C27.587 15.8379 31.7638 15.0505 35.9828 15.4919C35.7471 15.5814 35.5053 15.647 35.2817 15.7603M16.8641 23.1152C16.9185 23.0854 16.979 23.0675 17.0394 23.0377C16.4954 24.3918 16.0904 25.8711 15.8668 27.4876C15.5343 29.9214 15.6129 32.4983 16.0602 35.111C14.4766 36.2444 13.044 37.4911 11.7988 38.8451C11.551 36.0058 11.8714 33.0709 12.8385 30.1958C13.7391 27.5175 15.1354 25.1434 16.8702 23.1093M12.1313 41.1297C13.3341 39.6087 14.7969 38.2307 16.441 36.9781C17.0152 39.4178 17.8977 41.8634 19.1006 44.2375C20.3216 46.6415 21.7964 48.7889 23.4224 50.6858C21.4156 51.2346 19.4149 51.5686 17.4504 51.6104C14.7425 48.6696 12.8989 45.0369 12.1313 41.1357M19.1066 53.2388C20.9623 53.0658 22.8421 52.6781 24.722 52.0995C27.6052 55.0522 30.8752 57.2056 34.1695 58.2853C34.4838 58.3867 34.7981 58.4702 35.1064 58.5537C35.0399 58.5895 34.9855 58.6253 34.919 58.6551C32.2292 58.8102 29.4669 58.494 26.7529 57.6053C23.8395 56.6508 21.2645 55.1417 19.1066 53.2448" fill="#FFAF15"/>
<path d="M33.6678 0.603088L0 8.47101L33.6618 16.3449L67.3235 8.47101L33.6678 0.603088Z" fill="#1B1615"/>
<path fill-rule="evenodd" clip-rule="evenodd" d="M60.5295 44.6849C61.3818 44.6849 62.0708 45.1979 62.0708 45.8183C62.0708 46.0271 61.9923 46.2179 61.8593 46.385L61.817 51.9444C61.817 52.0935 61.6961 52.2128 61.545 52.2128C61.3999 52.2128 61.279 52.0935 61.279 51.9384L61.3213 46.7846C61.2609 46.8085 61.2125 46.8323 61.1521 46.8443L61.1098 51.9563C61.1098 52.0995 60.9889 52.2188 60.8317 52.2188C60.6806 52.2188 60.5597 52.0995 60.5658 51.9504L60.6081 46.9337C60.6081 46.9337 60.5476 46.9337 60.5234 46.9337C60.4993 46.9337 60.463 46.9337 60.4388 46.9337L60.3965 51.9623C60.3965 52.1114 60.2756 52.2307 60.1245 52.2248C59.9794 52.2248 59.8586 52.1055 59.8586 51.9563L59.9009 46.8264C59.8404 46.8085 59.786 46.7906 59.7316 46.7608L59.6893 51.9742C59.6893 52.1234 59.5684 52.2427 59.4113 52.2367C59.2602 52.2367 59.1453 52.1174 59.1453 51.9683L59.1876 46.3551C59.0546 46.1881 58.9761 45.9972 58.9821 45.7825C58.9821 45.1621 59.6833 44.6611 60.5355 44.667" fill="#302E2E"/>
<path d="M61.0251 46.1583H60.0218V6.765L56.3709 5.912L60.3119 5.59585C60.7108 5.61374 61.0251 5.93586 61.0251 6.32955V46.1583Z" fill="#302E2E"/>
<path d="M52.1337 22.3875C51.8013 22.0594 45.926 18.8562 33.6678 18.8562H33.6618C21.4035 18.8562 15.5283 22.0594 15.1958 22.3875L15.214 10.863C15.214 8.56645 23.4707 6.72921 33.6678 6.73518C43.8649 6.72325 52.1216 8.56645 52.1216 10.863L52.1398 22.3875H52.1337Z" fill="#302E2E"/>
</svg>
