<svg width="483" height="304" viewBox="0 0 483 304" fill="none" xmlns="http://www.w3.org/2000/svg">
<g clip-path="url(#clip0_2_2)">
<path d="M323.11 293.011C322.458 290.888 320.963 288.897 318.852 288.21C316.741 287.522 314.052 288.559 313.389 290.682C311.447 289.054 308.456 290.345 306.888 292.347C304.355 295.58 306.309 300.864 306.731 301.213C307.189 301.587 308.42 301.515 308.42 301.515L327.367 301.406C327.367 301.406 330.841 301.153 332.445 300.514C335.677 299.223 337.872 293.674 335.786 290.888C334.374 288.994 331.576 288.583 329.321 289.307C327.066 290.031 324.87 291.442 323.098 293.011" fill="#FEC75C"/>
<path d="M308.154 302.154C307.672 302.154 306.815 302.094 306.333 301.696C305.585 301.093 303.704 295.387 306.393 291.961C307.527 290.514 309.216 289.512 310.82 289.343C311.652 289.247 312.436 289.392 313.111 289.754C313.521 289.018 314.16 288.415 314.981 287.98C316.223 287.329 317.743 287.196 319.045 287.606C320.927 288.21 322.507 289.802 323.399 291.949C325.244 290.453 327.259 289.319 329.152 288.716C331.42 287.992 334.616 288.246 336.304 290.514C337.281 291.816 337.498 293.746 336.919 295.809C336.22 298.27 334.567 300.345 332.686 301.093C331.009 301.756 327.572 302.022 327.415 302.034L308.432 302.142C308.371 302.142 308.275 302.142 308.154 302.142V302.154ZM311.302 290.574C311.181 290.574 311.073 290.574 310.952 290.598C309.698 290.731 308.299 291.575 307.382 292.745C305.163 295.58 306.815 300.309 307.177 300.791C307.262 300.852 307.889 300.936 308.395 300.912L327.367 300.803C327.367 300.803 330.72 300.55 332.216 299.959C333.723 299.356 335.122 297.57 335.701 295.496C336.184 293.807 336.027 292.275 335.291 291.286C333.964 289.512 331.371 289.331 329.514 289.922C327.548 290.55 325.413 291.816 323.52 293.493C323.363 293.638 323.146 293.686 322.941 293.626C322.736 293.566 322.579 293.409 322.507 293.204C321.843 291.02 320.396 289.38 318.659 288.813C317.67 288.499 316.512 288.608 315.56 289.102C314.776 289.512 314.221 290.14 313.992 290.875C313.931 291.081 313.775 291.225 313.569 291.286C313.377 291.346 313.147 291.298 312.991 291.165C312.52 290.767 311.953 290.574 311.314 290.574H311.302Z" fill="#FFAF15"/>
<path d="M303.185 292.299C302.642 293.348 302.413 294.494 302.534 295.677C302.594 296.268 303.535 296.28 303.475 295.677C303.366 294.651 303.523 293.686 303.993 292.769C304.271 292.239 303.463 291.756 303.185 292.299Z" fill="#FFAF15"/>
<path d="M300.447 293.047C300.158 294.108 300.134 295.17 300.363 296.243C300.496 296.835 301.4 296.581 301.267 295.99C301.062 295.085 301.099 294.193 301.352 293.288C301.509 292.709 300.604 292.456 300.447 293.035V293.047Z" fill="#FFAF15"/>
<path d="M305.706 291.141C306.309 291.141 306.309 290.2 305.706 290.2C305.103 290.2 305.103 291.141 305.706 291.141Z" fill="#FFAF15"/>
<path d="M308.371 295.677V296.509C308.371 297.112 309.312 297.112 309.312 296.509V295.677C309.312 295.073 308.371 295.073 308.371 295.677Z" fill="#FFAF15"/>
<path d="M324.207 297.136V297.558C324.207 298.162 325.148 298.162 325.148 297.558V297.136C325.148 296.533 324.207 296.533 324.207 297.136Z" fill="#FFAF15"/>
<path d="M322.47 296.014L322.675 296.219C323.098 296.642 323.761 295.978 323.339 295.556L323.134 295.351C322.712 294.929 322.048 295.592 322.47 296.014Z" fill="#FFAF15"/>
<path d="M55.9019 275.326H24.1458C23.4583 275.326 22.8914 274.771 22.8914 274.072C22.8914 273.372 23.4462 272.817 24.1458 272.817H55.9019C56.5894 272.817 57.1563 273.372 57.1563 274.072C57.1563 274.771 56.6015 275.326 55.9019 275.326Z" fill="#0C3069"/>
<path d="M335.532 165.179H334.628C334.628 164.431 334.013 163.816 333.265 163.816C332.517 163.816 331.902 164.431 331.902 165.179H330.997C330.997 163.924 332.01 162.911 333.265 162.911C334.519 162.911 335.532 163.924 335.532 165.179Z" fill="white"/>
<path d="M338.777 112.355H337.872C337.872 111.607 337.257 110.992 336.509 110.992C335.761 110.992 335.146 111.607 335.146 112.355H334.242C334.242 111.1 335.255 110.087 336.509 110.087C337.764 110.087 338.777 111.1 338.777 112.355Z" fill="white"/>
<path d="M225.875 295.906H182.71L183.445 294.169C186.28 287.45 186.569 281.708 186.135 275.133L186.05 273.806L222.438 273.698V274.94C222.474 279.186 223.632 288.825 225.357 294.277L225.875 295.906ZM186.436 293.409H222.498C221.111 288.161 220.17 280.574 219.977 276.207L188.704 276.303C189.005 282.13 188.643 287.425 186.436 293.409Z" fill="#0C3069"/>
<path d="M170.311 276.183C137.542 276.183 110.996 276.002 109.838 275.592C107.028 274.59 103.373 270.706 103.313 267.944C103.205 261.972 102.951 253.842 102.65 244.421C101.757 216.024 100.527 177.145 102.119 155.625C102.408 151.704 105.653 148.677 109.512 148.677H109.633L298.542 148.954C302.534 149.026 305.742 152.247 305.838 156.3C305.983 162.585 306.188 169.015 306.393 175.517C307.262 202.779 308.154 230.971 305.139 257.618C305.018 258.667 304.97 259.825 304.91 261.032C304.657 266.629 304.343 273.589 297.131 275.013C293.609 275.712 223.692 276.183 170.299 276.183H170.311ZM109.536 150.691C106.702 150.691 104.338 152.911 104.121 155.782C102.541 177.194 103.759 216.024 104.652 244.373C104.953 253.794 105.207 261.936 105.315 267.92C105.351 269.657 108.258 272.902 110.501 273.71C114.518 274.53 292.125 273.927 296.745 273.058C302.401 271.937 302.654 266.363 302.908 260.959C302.968 259.705 303.016 258.498 303.149 257.413C306.152 230.898 305.26 202.791 304.391 175.601C304.186 169.087 303.981 162.658 303.836 156.361C303.764 153.393 301.436 151.041 298.53 150.981L109.633 150.703H109.549L109.536 150.691Z" fill="#0C3069"/>
<path fill-rule="evenodd" clip-rule="evenodd" d="M293.271 155.456L115.277 155.227C112.081 155.179 109.392 157.374 109.15 160.245C107.16 184.07 109.874 233.781 110.272 253.794C110.308 255.748 113.492 258.667 115.784 259.391C118.486 260.247 287.627 259.596 291.763 258.872C299.193 257.582 297.927 249.97 298.542 245.108C302.063 217.593 299.905 187.676 299.205 160.764C299.133 157.845 296.503 155.516 293.259 155.468L293.271 155.456Z" fill="#FFC452"/>
<path d="M241.313 302.745H167.26C164.317 302.745 162.785 300.429 162.785 298.149C162.785 295.87 164.317 293.541 167.26 293.541H241.313C244.256 293.541 245.788 295.857 245.788 298.137C245.788 300.417 244.256 302.745 241.313 302.745ZM167.26 295.556C165.318 295.556 164.799 297.184 164.799 298.149C164.799 299.115 165.318 300.731 167.26 300.731H241.313C243.255 300.731 243.773 299.102 243.773 298.137C243.773 297.172 243.255 295.556 241.313 295.556H167.26Z" fill="#0C3069"/>
<path d="M115.675 269.174C119.004 269.174 119.004 263.999 115.675 263.999C112.347 263.999 112.347 269.174 115.675 269.174Z" fill="#0C3069"/>
<path d="M126.096 269.174C129.425 269.174 129.425 263.999 126.096 263.999C122.767 263.999 122.767 269.174 126.096 269.174Z" fill="#0C3069"/>
<path d="M136.517 269.174C139.845 269.174 139.845 263.999 136.517 263.999C133.188 263.999 133.188 269.174 136.517 269.174Z" fill="#0C3069"/>
<path d="M204.286 153.912C205.842 153.912 205.854 151.487 204.286 151.487C202.718 151.487 202.718 153.912 204.286 153.912Z" fill="#0C3069"/>
<path d="M413.144 297.836H387.623L397.44 265.591H403.326L413.144 297.836Z" fill="#FFC452"/>
<path d="M415.254 297.836H385.524V301.515H415.254V297.836Z" fill="#FFC452"/>
<path d="M390.083 289.778L387.623 297.836H413.144L410.695 289.778H390.083Z" fill="#0C3069"/>
<path d="M392.532 281.72H408.235L405.787 273.649H394.992L392.532 281.72Z" fill="#0C3069"/>
<path d="M423.576 301.31H429.233V279.379H458.299V301.31H463.956V279.379H469.95V261.864H465.162V260.247H456.912V261.864H431.163V260.247H422.913V261.864H417.666V279.379H423.564V301.31H423.576ZM468.141 263.697V263.77L464.655 277.546H458.432L461.942 263.697H468.153H468.141ZM451.895 277.546H445.672L449.181 263.697H455.405L451.895 277.546ZM439.147 277.546H432.923L436.433 263.697H442.657L439.147 277.546ZM423.673 263.697H429.896L426.386 277.546H420.163L423.673 263.697Z" fill="#FFC452"/>
<path d="M145.068 86.9381L146.768 85.2373C147.118 84.8995 147.118 84.3325 146.768 83.9948L145.285 82.5231C144.947 82.1733 144.851 81.558 145.092 81.1238L146.298 78.2045C146.431 77.7341 146.949 77.3601 147.432 77.3601H149.518C150.001 77.3601 150.399 76.962 150.399 76.4795V74.079C150.399 73.5964 150.001 73.1984 149.518 73.1984H147.432C146.949 73.1984 146.443 72.8124 146.298 72.354L145.092 69.4347C144.863 69.0125 144.947 68.3852 145.285 68.0354L146.768 66.5637C147.118 66.2139 147.118 65.659 146.768 65.3212L145.068 63.6203C144.73 63.2826 144.163 63.2826 143.825 63.6203L142.342 65.1041C141.992 65.4419 141.377 65.5384 140.955 65.3092L138.024 64.1029C137.554 63.9702 137.18 63.4635 137.18 62.9689V60.882C137.18 60.3995 136.782 60.0014 136.299 60.0014H133.899C133.417 60.0014 133.019 60.3995 133.019 60.882V62.9689C133.019 63.4515 132.645 63.9581 132.175 64.1029L129.244 65.3092C128.822 65.5384 128.195 65.4539 127.857 65.1041L126.373 63.6324C126.036 63.2826 125.469 63.2826 125.131 63.6324L123.431 65.3333C123.081 65.671 123.081 66.2259 123.431 66.5758L124.914 68.0475C125.252 68.3973 125.348 69.0246 125.119 69.4468L123.913 72.366C123.78 72.8365 123.262 73.2104 122.779 73.2104H120.681C120.198 73.2104 119.8 73.5964 119.8 74.091V76.4916C119.8 76.9741 120.198 77.3722 120.681 77.3722H122.779C123.262 77.3722 123.768 77.7582 123.913 78.2166L125.119 81.1358C125.348 81.558 125.264 82.1853 124.914 82.5351L123.431 84.0068C123.081 84.3567 123.081 84.9116 123.431 85.2493L125.131 86.9502C125.469 87.3 126.024 87.3 126.373 86.9502L127.857 85.4785C128.195 85.1408 128.822 85.0442 129.256 85.2855L132.175 86.4918C132.645 86.6245 133.019 87.1311 133.019 87.6257V89.7247C133.019 90.2072 133.417 90.6053 133.899 90.6053H136.299C136.782 90.6053 137.18 90.2072 137.18 89.7247V87.6257C137.18 87.1432 137.554 86.6366 138.024 86.4918L140.955 85.2855C141.377 85.0563 142.004 85.1408 142.342 85.4785L143.825 86.9502C144.163 87.3 144.73 87.3 145.068 86.9502V86.9381ZM135.105 82.2939C131.234 82.2939 128.086 79.1454 128.086 75.2732C128.086 71.401 131.234 68.2525 135.105 68.2525C138.977 68.2525 142.125 71.3889 142.125 75.2732C142.125 79.1575 138.977 82.2939 135.105 82.2939Z" fill="#FFC452"/>
<path d="M161.302 93.5728L160.867 92.1494C160.783 91.8598 160.469 91.703 160.192 91.7875L158.95 92.1614C158.66 92.2459 158.286 92.1132 158.13 91.8598L156.887 90.352C156.682 90.1469 156.622 89.7488 156.755 89.4834L157.37 88.3375C157.514 88.0721 157.406 87.7343 157.153 87.6016L155.838 86.902C155.573 86.7572 155.247 86.8658 155.102 87.1312L154.487 88.2771C154.342 88.5425 153.993 88.7114 153.691 88.6511L151.737 88.4581C151.436 88.4581 151.122 88.2289 151.038 87.9394L150.664 86.6969C150.579 86.4074 150.278 86.2505 149.988 86.335L148.565 86.7572C148.276 86.8416 148.119 87.1553 148.203 87.4448L148.577 88.6873C148.662 88.9768 148.529 89.3387 148.276 89.5076L146.768 90.7501C146.563 90.9672 146.165 91.0154 145.9 90.8827L144.754 90.2675C144.489 90.1228 144.163 90.2193 144.018 90.4967L143.307 91.7995C143.174 92.0649 143.271 92.4027 143.524 92.5354L144.67 93.1506C144.935 93.2953 145.104 93.6452 145.044 93.9347L144.851 95.8889C144.851 96.1905 144.621 96.5041 144.332 96.5885L143.09 96.9625C142.8 97.0469 142.631 97.3606 142.728 97.638L143.162 99.0615C143.246 99.351 143.548 99.5078 143.837 99.4234L145.08 99.0494C145.369 98.965 145.731 99.0977 145.9 99.351L147.142 100.871C147.359 101.076 147.407 101.474 147.275 101.739L146.66 102.885C146.515 103.151 146.623 103.477 146.889 103.621L148.203 104.321C148.469 104.466 148.794 104.357 148.939 104.104L149.554 102.958C149.687 102.692 150.049 102.524 150.338 102.584L152.28 102.777C152.582 102.777 152.895 103.006 152.992 103.296L153.365 104.538C153.45 104.828 153.763 104.996 154.041 104.9L155.464 104.466C155.754 104.381 155.91 104.068 155.826 103.79L155.452 102.548C155.368 102.258 155.5 101.884 155.754 101.727L157.273 100.485C157.478 100.268 157.876 100.207 158.142 100.352L159.287 100.967C159.553 101.112 159.89 101.016 160.023 100.75L160.723 99.4354C160.867 99.17 160.759 98.8443 160.493 98.6996L159.348 98.0844C159.082 97.9396 158.913 97.5898 158.974 97.3003L159.167 95.3461C159.167 95.0445 159.396 94.7308 159.685 94.6464L160.928 94.2725C161.217 94.188 161.374 93.8864 161.289 93.5969L161.302 93.5728ZM155.85 97.6501C154.716 99.7732 152.075 100.569 149.964 99.4354C147.842 98.3015 147.046 95.6597 148.179 93.5487C149.313 91.4256 151.954 90.6294 154.065 91.7633C156.176 92.8973 156.972 95.5391 155.838 97.6501H155.85Z" fill="#FFC452"/>
<path d="M232.316 121.052H192.997C192.31 121.052 191.743 120.497 191.743 119.798C191.743 119.098 192.298 118.543 192.997 118.543H232.316C233.003 118.543 233.57 119.098 233.57 119.798C233.57 120.497 233.015 121.052 232.316 121.052Z" fill="#0C3069"/>
<path d="M152.28 138.918H88.7677C88.0802 138.918 87.5134 138.363 87.5134 137.663C87.5134 136.963 88.0682 136.409 88.7677 136.409H152.28C152.967 136.409 153.534 136.963 153.534 137.663C153.534 138.363 152.98 138.918 152.28 138.918Z" fill="#0C3069"/>
<path d="M456.78 172.742H393.267C392.58 172.742 392.013 172.187 392.013 171.488C392.013 170.788 392.568 170.233 393.267 170.233H456.78C457.467 170.233 458.034 170.788 458.034 171.488C458.034 172.187 457.479 172.742 456.78 172.742Z" fill="#0C3069"/>
<path d="M481.758 304H1.25433C0.566859 304 0 303.445 0 302.745C0 302.046 0.554798 301.491 1.25433 301.491H481.758C482.445 301.491 483.012 302.046 483.012 302.745C483.012 303.445 482.457 304 481.758 304Z" fill="#0C3069"/>
<path d="M305.501 105.346C302.811 105.346 300.278 106.396 298.373 108.302C295.128 111.547 294.477 116.589 296.805 120.546L296.974 120.823L286.758 131.041C286.758 131.041 286.264 131.523 286.252 132.199C286.252 132.705 286.505 133.236 287.024 133.755C287.566 134.298 288.145 134.575 288.736 134.575C289.436 134.575 289.93 134.165 289.942 134.165L300.134 123.972L300.411 124.14C301.955 125.045 303.716 125.528 305.513 125.528C308.202 125.528 310.735 124.478 312.641 122.572C316.573 118.64 316.573 112.234 312.641 108.302C310.735 106.396 308.202 105.346 305.501 105.346ZM305.501 122.524C301.593 122.524 298.409 119.339 298.409 115.431C298.409 111.523 301.593 108.338 305.501 108.338C309.409 108.338 312.593 111.523 312.593 115.431C312.593 119.339 309.409 122.524 305.501 122.524Z" fill="#FFC452"/>
<path d="M301.762 116.903H309.071V115.033H301.762V116.903Z" fill="#FFC452"/>
<path d="M118.172 301.684C117.485 301.684 116.918 301.129 116.918 300.429V204.082C116.918 203.394 117.472 202.828 118.172 202.828C118.872 202.828 119.426 203.382 119.426 204.082V300.429C119.426 301.117 118.872 301.684 118.172 301.684Z" fill="#0C3069"/>
<path d="M140.569 301.684C139.881 301.684 139.315 301.129 139.315 300.429V204.082C139.315 203.394 139.869 202.828 140.569 202.828C141.268 202.828 141.823 203.382 141.823 204.082V300.429C141.823 301.117 141.268 301.684 140.569 301.684Z" fill="#0C3069"/>
<path d="M140.569 211.911H118.184C117.497 211.911 116.93 211.356 116.93 210.656C116.93 209.957 117.485 209.402 118.184 209.402H140.569C141.256 209.402 141.823 209.957 141.823 210.656C141.823 211.356 141.268 211.911 140.569 211.911Z" fill="#0C3069"/>
<path d="M140.569 222.924H118.184C117.497 222.924 116.93 222.37 116.93 221.67C116.93 220.97 117.485 220.415 118.184 220.415H140.569C141.256 220.415 141.823 220.97 141.823 221.67C141.823 222.37 141.268 222.924 140.569 222.924Z" fill="#0C3069"/>
<path d="M140.569 233.938H118.184C117.497 233.938 116.93 233.383 116.93 232.683C116.93 231.984 117.485 231.429 118.184 231.429H140.569C141.256 231.429 141.823 231.984 141.823 232.683C141.823 233.383 141.268 233.938 140.569 233.938Z" fill="#0C3069"/>
<path d="M140.569 244.939H118.184C117.497 244.939 116.93 244.385 116.93 243.685C116.93 242.985 117.485 242.43 118.184 242.43H140.569C141.256 242.43 141.823 242.985 141.823 243.685C141.823 244.385 141.268 244.939 140.569 244.939Z" fill="#0C3069"/>
<path d="M140.569 255.953H118.184C117.497 255.953 116.93 255.398 116.93 254.698C116.93 253.999 117.485 253.444 118.184 253.444H140.569C141.256 253.444 141.823 253.999 141.823 254.698C141.823 255.398 141.268 255.953 140.569 255.953Z" fill="#0C3069"/>
<path d="M140.569 266.954H118.184C117.497 266.954 116.93 266.4 116.93 265.7C116.93 265 117.485 264.445 118.184 264.445H140.569C141.256 264.445 141.823 265 141.823 265.7C141.823 266.4 141.268 266.954 140.569 266.954Z" fill="#0C3069"/>
<path d="M140.569 277.968H118.184C117.497 277.968 116.93 277.413 116.93 276.713C116.93 276.014 117.485 275.459 118.184 275.459H140.569C141.256 275.459 141.823 276.014 141.823 276.713C141.823 277.413 141.268 277.968 140.569 277.968Z" fill="#0C3069"/>
<path d="M140.569 288.969H118.184C117.497 288.969 116.93 288.415 116.93 287.715C116.93 287.015 117.485 286.46 118.184 286.46H140.569C141.256 286.46 141.823 287.015 141.823 287.715C141.823 288.415 141.268 288.969 140.569 288.969Z" fill="#0C3069"/>
<path d="M87.6943 208.75C87.0068 208.75 86.4399 208.196 86.4399 207.496V202.622C86.4399 201.935 86.9947 201.368 87.6943 201.368C88.3938 201.368 88.9486 201.923 88.9486 202.622V207.496C88.9486 208.183 88.3938 208.75 87.6943 208.75Z" fill="#0C3069"/>
<path d="M90.1185 206.314H85.2459C84.5585 206.314 83.9916 205.759 83.9916 205.059C83.9916 204.36 84.5464 203.805 85.2459 203.805H90.1185C90.806 203.805 91.3728 204.36 91.3728 205.059C91.3728 205.759 90.818 206.314 90.1185 206.314Z" fill="#0C3069"/>
<path d="M200.174 34.5243C199.486 34.5243 198.919 33.9694 198.919 33.2698V28.3963C198.919 27.7087 199.474 27.1418 200.174 27.1418C200.873 27.1418 201.428 27.6967 201.428 28.3963V33.2698C201.428 33.9574 200.873 34.5243 200.174 34.5243Z" fill="#0C3069"/>
<path d="M202.61 32.0876H197.737C197.05 32.0876 196.483 31.5327 196.483 30.8331C196.483 30.1334 197.038 29.5785 197.737 29.5785H202.61C203.297 29.5785 203.864 30.1334 203.864 30.8331C203.864 31.5327 203.309 32.0876 202.61 32.0876Z" fill="#0C3069"/>
<path d="M239.612 286.714C239.504 286.714 239.383 286.702 239.263 286.665L234.583 285.326C233.92 285.133 233.534 284.446 233.727 283.782C233.92 283.119 234.607 282.745 235.271 282.926L239.95 284.265C240.614 284.458 240.999 285.146 240.807 285.809C240.65 286.364 240.143 286.714 239.6 286.714H239.612Z" fill="#0C3069"/>
<path d="M236.597 288.39C236.489 288.39 236.368 288.378 236.248 288.342C235.584 288.149 235.198 287.462 235.391 286.798L236.73 282.118C236.923 281.454 237.61 281.08 238.274 281.261C238.937 281.454 239.323 282.142 239.13 282.805L237.791 287.486C237.635 288.041 237.128 288.39 236.585 288.39H236.597Z" fill="#0C3069"/>
<path d="M215.008 139.593C214.9 139.593 214.779 139.581 214.671 139.545L209.991 138.206C209.328 138.013 208.942 137.325 209.135 136.662C209.328 135.998 210.015 135.612 210.679 135.805L215.358 137.144C216.021 137.337 216.407 138.025 216.214 138.688C216.058 139.243 215.551 139.593 215.008 139.593Z" fill="#0C3069"/>
<path d="M211.993 141.258C211.885 141.258 211.764 141.246 211.643 141.21C210.98 141.017 210.594 140.329 210.787 139.666L212.126 134.985C212.319 134.322 213.006 133.936 213.67 134.129C214.333 134.322 214.719 135.009 214.526 135.673L213.187 140.353C213.03 140.908 212.524 141.258 211.981 141.258H211.993Z" fill="#0C3069"/>
<path d="M224.021 105.778C230.808 98.9893 230.808 87.9831 224.021 81.1947C217.234 74.4063 206.23 74.4063 199.443 81.1947C192.655 87.9831 192.655 98.9893 199.443 105.778C206.23 112.566 217.234 112.566 224.021 105.778Z" fill="#FFC452"/>
<path d="M211.728 106.504C218.915 106.504 224.741 100.677 224.741 93.4884C224.741 86.2998 218.915 80.4724 211.728 80.4724C204.541 80.4724 198.714 86.2998 198.714 93.4884C198.714 100.677 204.541 106.504 211.728 106.504Z" fill="white"/>
<path d="M211.728 107.011C204.274 107.011 198.208 100.943 198.208 93.4884C198.208 86.0334 204.274 79.9657 211.728 79.9657C219.181 79.9657 225.248 86.0334 225.248 93.4884C225.248 100.943 219.181 107.011 211.728 107.011ZM211.728 80.979C204.829 80.979 199.221 86.5883 199.221 93.5004C199.221 100.413 204.829 106.01 211.728 106.01C218.627 106.01 224.235 100.4 224.235 93.5004C224.235 86.6004 218.627 80.979 211.728 80.979Z" fill="#0C3069"/>
<path d="M211.728 93.9829C211.45 93.9829 211.221 93.7537 211.221 93.4763V86.8537C211.221 86.5762 211.45 86.3471 211.728 86.3471C212.005 86.3471 212.234 86.5762 212.234 86.8537V93.4763C212.234 93.7537 212.005 93.9829 211.728 93.9829Z" fill="#0C3069"/>
<path d="M219.483 93.9829H211.716C211.438 93.9829 211.209 93.7537 211.209 93.4763C211.209 93.1988 211.438 92.9696 211.716 92.9696H219.483C219.76 92.9696 219.99 93.1988 219.99 93.4763C219.99 93.7537 219.76 93.9829 219.483 93.9829Z" fill="#0C3069"/>
<path d="M212.234 81.932C212.234 82.2215 212.005 82.4507 211.716 82.4507C211.426 82.4507 211.197 82.2215 211.197 81.932C211.197 81.6425 211.426 81.4133 211.716 81.4133C212.005 81.4133 212.234 81.6425 212.234 81.932Z" fill="#0C3069"/>
<path d="M220.255 85.6836C220.05 85.8887 219.724 85.8887 219.531 85.6836C219.326 85.4785 219.326 85.1528 219.531 84.9598C219.736 84.7547 220.062 84.7547 220.255 84.9598C220.46 85.1649 220.46 85.4906 220.255 85.6836Z" fill="#0C3069"/>
<path d="M223.27 93.995C222.981 93.995 222.751 93.7658 222.751 93.4763C222.751 93.1868 222.981 92.9576 223.27 92.9576C223.56 92.9576 223.789 93.1868 223.789 93.4763C223.789 93.7658 223.56 93.995 223.27 93.995Z" fill="#0C3069"/>
<path d="M219.519 102.017C219.314 101.812 219.314 101.486 219.519 101.293C219.724 101.1 220.05 101.088 220.243 101.293C220.448 101.498 220.448 101.824 220.243 102.017C220.038 102.222 219.712 102.222 219.519 102.017Z" fill="#0C3069"/>
<path d="M211.209 105.033C211.209 104.743 211.438 104.514 211.728 104.514C212.017 104.514 212.246 104.743 212.246 105.033C212.246 105.322 212.017 105.551 211.728 105.551C211.438 105.551 211.209 105.322 211.209 105.033Z" fill="#0C3069"/>
<path d="M203.201 101.281C203.406 101.076 203.732 101.076 203.924 101.281C204.117 101.486 204.13 101.812 203.924 102.005C203.719 102.198 203.394 102.21 203.201 102.005C202.996 101.8 202.996 101.474 203.201 101.281Z" fill="#0C3069"/>
<path d="M200.174 94.0071C200.46 94.0071 200.692 93.7748 200.692 93.4884C200.692 93.2019 200.46 92.9696 200.174 92.9696C199.887 92.9696 199.655 93.2019 199.655 93.4884C199.655 93.7748 199.887 94.0071 200.174 94.0071Z" fill="#0C3069"/>
<path d="M203.924 84.9477C204.13 85.1528 204.13 85.4785 203.924 85.6715C203.719 85.8766 203.394 85.8766 203.201 85.6715C203.008 85.4664 202.996 85.1407 203.201 84.9477C203.406 84.7547 203.732 84.7427 203.924 84.9477Z" fill="#0C3069"/>
<path d="M237.14 86.8416H229.843C229.566 86.8416 229.337 86.6124 229.337 86.335C229.337 86.0575 229.566 85.8283 229.843 85.8283H237.14C237.417 85.8283 237.647 86.0575 237.647 86.335C237.647 86.6124 237.417 86.8416 237.14 86.8416Z" fill="#0C3069"/>
<path d="M237.14 101.124H229.843C229.566 101.124 229.337 100.895 229.337 100.618C229.337 100.34 229.566 100.111 229.843 100.111H237.14C237.417 100.111 237.647 100.34 237.647 100.618C237.647 100.895 237.417 101.124 237.14 101.124Z" fill="#0C3069"/>
<path d="M246.21 93.995H232.581C232.304 93.995 232.074 93.7658 232.074 93.4884C232.074 93.2109 232.304 92.9817 232.581 92.9817H246.21C246.487 92.9817 246.716 93.2109 246.716 93.4884C246.716 93.7658 246.487 93.995 246.21 93.995Z" fill="#0C3069"/>
<path d="M269.982 281.72H261.925V289.778H269.982V281.72Z" fill="white"/>
<path d="M270.621 290.405H261.31V281.092H270.621V290.405ZM262.564 289.15H269.379V282.335H262.564V289.15Z" fill="#0C3069"/>
<path d="M280.185 283.493H272.888C272.611 283.493 272.382 283.264 272.382 282.986C272.382 282.709 272.611 282.48 272.888 282.48H280.185C280.463 282.48 280.692 282.709 280.692 282.986C280.692 283.264 280.463 283.493 280.185 283.493Z" fill="#0C3069"/>
<path d="M282.935 289.006H273.069C272.695 289.006 272.394 288.776 272.394 288.499C272.394 288.222 272.695 287.992 273.069 287.992H282.935C283.309 287.992 283.61 288.222 283.61 288.499C283.61 288.776 283.309 289.006 282.935 289.006Z" fill="#0C3069"/>
<path d="M286.517 286.098H272.888C272.611 286.098 272.382 285.869 272.382 285.592C272.382 285.314 272.611 285.085 272.888 285.085H286.517C286.794 285.085 287.024 285.314 287.024 285.592C287.024 285.869 286.794 286.098 286.517 286.098Z" fill="#0C3069"/>
<path d="M84.9685 171.488H93.0252V163.43H84.9685V171.488Z" fill="white"/>
<path d="M93.6523 172.115H84.3414V162.802H93.6523V172.115ZM85.5957 170.861H92.398V164.057H85.5957V170.861Z" fill="#0C3069"/>
<path d="M74.7651 165.203H82.0619C82.3393 165.203 82.5684 164.974 82.5684 164.696C82.5684 164.419 82.3393 164.19 82.0619 164.19H74.7651C74.4877 164.19 74.2585 164.419 74.2585 164.696C74.2585 164.974 74.4877 165.203 74.7651 165.203Z" fill="#0C3069"/>
<path d="M72.0272 170.728H81.893C82.2669 170.728 82.5684 170.499 82.5684 170.221C82.5684 169.944 82.2669 169.715 81.893 169.715H72.0272C71.6534 169.715 71.3518 169.944 71.3518 170.221C71.3518 170.499 71.6534 170.728 72.0272 170.728Z" fill="#0C3069"/>
<path d="M68.4331 167.809H82.0619C82.3393 167.809 82.5684 167.579 82.5684 167.302C82.5684 167.024 82.3393 166.795 82.0619 166.795H68.4331C68.1557 166.795 67.9266 167.024 67.9266 167.302C67.9266 167.579 68.1557 167.809 68.4331 167.809Z" fill="#0C3069"/>
<path d="M333.253 193.72H330.756V301.31H333.253V193.72Z" fill="#385583"/>
<path d="M332.288 181.946H331.733C327.637 181.946 324.316 185.268 324.316 189.365V199.317C324.316 203.414 327.637 206.736 331.733 206.736H332.288C336.384 206.736 339.705 203.414 339.705 199.317V189.365C339.705 185.268 336.384 181.946 332.288 181.946Z" fill="#FFC452"/>
<path d="M342.081 199.534C342.962 199.679 343.842 199.812 344.723 199.957C345.314 200.053 345.567 199.148 344.976 199.052C344.095 198.907 343.215 198.774 342.335 198.63C341.744 198.533 341.49 199.438 342.081 199.534Z" fill="#385583"/>
<path d="M341.997 193.804C342.684 193.684 343.372 193.672 344.071 193.732C344.674 193.792 344.662 192.851 344.071 192.791C343.287 192.719 342.528 192.755 341.744 192.9C341.153 193.008 341.406 193.913 341.997 193.804Z" fill="#385583"/>
<path d="M341.707 188.581C342.383 188.316 343.058 188.05 343.734 187.773C344.288 187.556 344.047 186.651 343.48 186.868C342.805 187.134 342.13 187.399 341.454 187.676C340.899 187.894 341.141 188.798 341.707 188.581Z" fill="#385583"/>
<path d="M318.707 200.415C319.395 200.318 320.07 200.162 320.734 199.932C321.3 199.739 321.059 198.835 320.48 199.028C319.817 199.257 319.154 199.414 318.454 199.51C317.863 199.595 318.116 200.499 318.707 200.415Z" fill="#385583"/>
<path d="M317.489 193.744C318.358 193.768 319.202 193.901 320.034 194.13C320.613 194.299 320.866 193.394 320.287 193.225C319.371 192.972 318.442 192.827 317.489 192.803C316.886 192.791 316.886 193.72 317.489 193.744Z" fill="#385583"/>
<path d="M318.309 186.024C318.985 186.241 319.66 186.458 320.336 186.675C320.915 186.856 321.156 185.951 320.589 185.77C319.913 185.553 319.238 185.336 318.563 185.119C317.984 184.938 317.743 185.843 318.309 186.024Z" fill="#385583"/>
<path d="M326.173 302.77L327.837 288.39H335.966L337.848 302.565L326.173 302.77Z" fill="#0C3069"/>
<path d="M96.6072 233.926C96.2334 231.634 94.6172 225.735 91.0593 227.605C85.2942 230.633 92.2533 242.105 85.3063 244.131C84.9324 239.559 83.9554 236.411 81.881 236.592C77.6235 236.978 78.7572 246.882 78.6849 249.113C78.6125 251.333 78.5039 253.613 78.4075 255.905C73.3902 256.809 74.3912 243.733 71.3398 241.924C66.5999 239.113 65.5989 245.374 65.7195 248.269C65.9366 253.191 67.2633 259.089 71.8946 261.695C73.4143 262.564 76.1038 263.529 78.2024 263.36C78.1783 267.292 78.3472 271.213 78.9984 274.952C78.9984 274.988 79.0708 274.988 79.0829 274.952L81.893 275.109C81.893 275.109 81.893 275.145 81.893 275.157C81.8689 276.388 83.7986 276.4 83.8107 275.157C83.8469 272.781 85.3063 261.116 85.4751 251.224C87.7184 251.562 90.5407 250.513 92.1447 249.33C96.9329 245.82 97.4877 239.366 96.6072 233.926Z" fill="#FEC75C"/>
<path d="M82.8217 276.605C82.5323 276.605 82.2549 276.533 82.0136 276.388C81.7121 276.207 81.5071 275.929 81.4106 275.604L79.3361 275.495L78.5884 275.519L78.4678 275.049C77.913 271.876 77.6597 268.33 77.6597 263.927C75.3561 263.927 72.8233 262.853 71.6293 262.178C66.6964 259.391 65.4059 253.094 65.1888 248.305C65.1044 246.375 65.5024 242.394 67.6613 241.103C68.7588 240.452 70.0855 240.573 71.6051 241.477C73.0766 242.346 73.6434 245.036 74.2947 248.148C75.1751 252.358 75.9712 255.386 77.9009 255.434L77.9491 254.397C78.0336 252.612 78.1059 250.838 78.1662 249.101C78.1662 248.763 78.1662 248.233 78.1421 247.593C78.0094 243.697 77.7562 236.435 81.8569 236.061C82.484 236.001 83.0629 236.182 83.5695 236.604C84.7153 237.569 85.4389 239.789 85.8007 243.383C88.3938 242.225 88.2491 239.234 88.1044 235.796C87.9476 232.322 87.7908 228.727 90.8422 227.122C91.8312 226.604 92.784 226.555 93.6523 227.002C96.1972 228.28 97.0776 233.262 97.162 233.829C97.8374 238.003 98.1269 245.615 92.4824 249.753C90.9145 250.911 88.2611 251.924 86.0178 251.803C85.8731 258.257 85.2098 265.374 84.7635 270.127C84.5464 272.503 84.3655 274.385 84.3534 275.157C84.3534 275.7 84.076 276.159 83.6177 276.412C83.3765 276.545 83.1112 276.605 82.8458 276.605H82.8217ZM79.4447 274.434L82.4237 274.59V275.109C82.3996 275.362 82.4961 275.435 82.5564 275.471C82.7011 275.555 82.9182 275.555 83.075 275.471C83.1956 275.399 83.2559 275.29 83.2559 275.133C83.2559 274.313 83.4368 272.516 83.666 270.019C84.1243 265.145 84.8118 257.775 84.9203 251.2V250.597L85.5354 250.681C87.6099 250.995 90.3115 249.982 91.8191 248.884C97.0052 245.084 96.7158 237.919 96.0766 233.998C95.7992 232.273 94.8222 228.799 93.1458 227.955C92.591 227.677 91.9879 227.714 91.3005 228.063C88.8401 229.354 88.9848 232.454 89.1295 235.747C89.2863 239.366 89.4672 243.456 85.451 244.638L84.8238 244.819L84.7756 244.167C84.4017 239.608 83.5333 237.979 82.8579 237.424C82.5805 237.183 82.279 237.086 81.9292 237.123C78.8416 237.4 79.0708 244.264 79.1914 247.557C79.2155 248.233 79.2276 248.776 79.2276 249.137C79.1673 250.875 79.0949 252.648 79.0105 254.445L78.9261 256.363L78.5039 256.436C75.0787 257.051 74.1138 252.431 73.2575 248.353C72.7027 245.736 72.1358 243.021 71.0745 242.382C69.9166 241.695 68.9518 241.562 68.2161 242.008C66.624 242.961 66.1778 246.339 66.2622 248.245C66.4672 252.768 67.6492 258.691 72.1599 261.237C73.7158 262.117 76.2606 262.986 78.1542 262.829L78.7331 262.781V263.36C78.709 267.751 78.9381 271.285 79.4447 274.422V274.434Z" fill="#FFAF15"/>
<path d="M91.0955 301.539H70.7368C69.6513 301.539 68.7829 300.827 68.5779 299.778L63.9586 276.038L65.8763 275.664L70.4956 299.404C70.5317 299.585 70.6885 299.585 70.7368 299.585H91.0955C91.0955 299.585 91.3005 299.585 91.3367 299.404L95.9198 275.664L97.8375 276.038L93.2543 299.778C93.0493 300.839 92.1809 301.551 91.0955 301.551V301.539Z" fill="#0C3069"/>
<path d="M64.1636 268.402H97.9581C98.537 268.402 99.0073 269.041 99.0073 269.813V274.952C99.0073 275.736 98.537 276.364 97.9581 276.364H64.1636C63.5847 276.364 63.1143 275.724 63.1143 274.952V269.813C63.1143 269.029 63.5847 268.402 64.1636 268.402Z" fill="#FFC452"/>
<path d="M97.9581 276.906H64.1636C63.2952 276.906 62.5836 276.038 62.5836 274.952V269.813C62.5836 268.74 63.2952 267.859 64.1636 267.859H97.9581C98.8264 267.859 99.538 268.74 99.538 269.813V274.952C99.538 276.026 98.8264 276.906 97.9581 276.906ZM64.1636 268.933C63.9224 268.933 63.645 269.307 63.645 269.813V274.952C63.645 275.459 63.9224 275.833 64.1636 275.833H97.9581C98.1993 275.833 98.4767 275.459 98.4767 274.952V269.813C98.4767 269.307 98.1993 268.933 97.9581 268.933H64.1636Z" fill="#0C3069"/>
<path d="M97.958 276.822H64.1636C63.3435 276.822 62.6681 275.99 62.6681 274.964V269.825C62.6681 268.8 63.3314 267.968 64.1636 267.968H97.958C98.7782 267.968 99.4536 268.8 99.4536 269.825V274.964C99.4536 275.99 98.7782 276.822 97.958 276.822ZM64.1636 268.848C63.8741 268.848 63.5606 269.246 63.5606 269.825V274.964C63.5606 275.531 63.8741 275.941 64.1636 275.941H97.958C98.2475 275.941 98.5611 275.543 98.5611 274.964V269.825C98.5611 269.246 98.2475 268.848 97.958 268.848H64.1636Z" fill="#FFC452"/>
<path d="M97.958 277.353H64.1636C63.042 277.353 62.1374 276.279 62.1374 274.964V269.825C62.1374 268.511 63.042 267.425 64.1636 267.425H97.958C99.0797 267.425 99.9843 268.499 99.9843 269.825V274.964C99.9843 276.279 99.0797 277.353 97.958 277.353ZM64.2239 269.379C64.2239 269.379 64.0912 269.584 64.0912 269.813V274.952C64.0912 275.23 64.1998 275.387 64.236 275.411H97.958C97.958 275.411 98.0304 275.23 98.0304 274.952V269.813C98.0304 269.536 97.9219 269.379 97.8857 269.355H64.2239V269.379Z" fill="#0C3069"/>
<path d="M67.8421 248.221C68.3969 248.293 68.9517 248.365 69.5065 248.438C70.1096 248.51 70.0975 247.569 69.5065 247.497C68.9517 247.424 68.3969 247.352 67.8421 247.28C67.2391 247.207 67.2512 248.148 67.8421 248.221Z" fill="#FFAF15"/>
<path d="M70.3026 240.838V241.67C70.3026 242.274 71.2433 242.274 71.2433 241.67V240.838C71.2433 240.235 70.3026 240.235 70.3026 240.838Z" fill="#FFAF15"/>
<path d="M73.5469 249.451C73.957 249.222 74.355 248.993 74.7651 248.776C75.2957 248.486 74.8254 247.666 74.2947 247.967C73.8846 248.197 73.4866 248.426 73.0766 248.643C72.5459 248.932 73.0162 249.753 73.5469 249.451Z" fill="#FFAF15"/>
<path d="M68.7226 260.235C69.2171 259.898 69.6995 259.548 70.194 259.21C70.6885 258.872 70.2181 258.052 69.7237 258.402C69.2292 258.74 68.7467 259.089 68.2522 259.427C67.7577 259.765 68.2281 260.585 68.7226 260.235Z" fill="#FFAF15"/>
<path d="M65.2129 252.177C65.5627 252.31 65.9124 252.455 66.2622 252.587C66.8291 252.805 67.0703 251.9 66.5155 251.683C66.1657 251.55 65.8159 251.405 65.4662 251.273C64.8993 251.055 64.6581 251.96 65.2129 252.177Z" fill="#FFAF15"/>
<path d="M72.0152 256.532C72.2444 256.544 72.377 256.653 72.5097 256.822C72.8956 257.292 73.559 256.617 73.173 256.158C72.8715 255.796 72.4856 255.627 72.0152 255.591C71.4122 255.543 71.4122 256.484 72.0152 256.532Z" fill="#FFAF15"/>
<path d="M74.0776 260.947C73.9811 261.599 74.0535 262.165 74.3068 262.781C74.5359 263.336 75.344 262.853 75.1148 262.31C74.958 261.948 74.9219 261.586 74.9822 261.2C75.0787 260.609 74.1741 260.356 74.0776 260.947Z" fill="#FFAF15"/>
<path d="M78.9743 261.116L79.8065 261.333C80.3854 261.49 80.6387 260.585 80.0598 260.428C79.7824 260.356 79.505 260.284 79.2276 260.211C78.6487 260.054 78.3954 260.959 78.9743 261.116Z" fill="#FFAF15"/>
<path d="M81.9775 251.888C81.9292 252.419 82.1342 252.901 82.5443 253.251C83.0026 253.637 83.666 252.973 83.2077 252.587C82.9664 252.382 82.8941 252.189 82.9182 251.888C82.9785 251.285 82.0378 251.285 81.9775 251.888Z" fill="#FFAF15"/>
<path d="M80.7834 245.193C80.506 245.567 80.4578 245.941 80.5422 246.387C80.6508 246.978 81.5553 246.725 81.4468 246.134C81.4226 245.941 81.4709 245.784 81.5915 245.663C81.9533 245.181 81.1332 244.71 80.7834 245.193Z" fill="#FFAF15"/>
<path d="M85.9334 247.931V248.763C85.9334 249.367 86.8742 249.367 86.8742 248.763V247.931C86.8742 247.328 85.9334 247.328 85.9334 247.931Z" fill="#FFAF15"/>
<path d="M77.2014 246.459C77.4064 246.604 77.6235 246.737 77.8285 246.882C78.3351 247.219 78.8055 246.411 78.2989 246.073C78.0939 245.929 77.8768 245.796 77.6718 245.651C77.1652 245.313 76.6948 246.134 77.2014 246.459Z" fill="#FFAF15"/>
<path d="M78.7693 238.679C78.9502 238.896 79.0346 239.113 79.0587 239.391C79.107 239.994 80.0477 239.994 79.9995 239.391C79.9633 238.848 79.7824 238.425 79.4326 238.015C79.0346 237.557 78.3833 238.22 78.7693 238.679Z" fill="#FFAF15"/>
<path d="M81.1332 235.832V237.086C81.1332 237.69 82.0739 237.69 82.0739 237.086V235.832C82.0739 235.229 81.1332 235.229 81.1332 235.832Z" fill="#FFAF15"/>
<path d="M86.9344 241.345C87.0671 241.489 87.1998 241.634 87.3445 241.767C87.7666 242.201 88.43 241.538 88.0079 241.103C87.8752 240.959 87.7425 240.814 87.5978 240.681C87.1757 240.247 86.5123 240.91 86.9344 241.345Z" fill="#FFAF15"/>
<path d="M87.8631 235.76C88.2732 235.784 88.6953 235.808 89.1054 235.832C89.7084 235.868 89.7084 234.927 89.1054 234.891C88.6953 234.867 88.2732 234.843 87.8631 234.819C87.2601 234.782 87.2601 235.723 87.8631 235.76Z" fill="#FFAF15"/>
<path d="M89.2019 228.244C89.4793 228.522 89.7567 228.799 90.0341 229.077C90.4562 229.499 91.1196 228.835 90.6974 228.413C90.42 228.136 90.1427 227.858 89.8653 227.581C89.4431 227.159 88.7798 227.822 89.2019 228.244Z" fill="#FFAF15"/>
<path d="M92.8081 225.832V227.291C92.8081 227.894 93.7488 227.894 93.7488 227.291V225.832C93.7488 225.229 92.8081 225.229 92.8081 225.832Z" fill="#FFAF15"/>
<path d="M94.5087 234.614C94.6413 234.408 94.7861 234.191 94.9187 233.986C95.2564 233.48 94.4363 233.009 94.1107 233.516C93.978 233.721 93.8333 233.938 93.7006 234.143C93.3629 234.65 94.183 235.12 94.5087 234.614Z" fill="#FFAF15"/>
<path d="M91.3367 243.83C91.6864 243.697 92.0362 243.564 92.386 243.42C92.9408 243.202 92.6995 242.298 92.1327 242.515C91.7829 242.648 91.4332 242.78 91.0834 242.925C90.5286 243.142 90.7698 244.047 91.3367 243.83Z" fill="#FFAF15"/>
<path d="M95.4856 242.515C95.8353 242.442 96.1851 242.37 96.5228 242.298C97.1138 242.177 96.8605 241.272 96.2695 241.393C95.9198 241.465 95.57 241.538 95.2323 241.61C94.6413 241.731 94.8946 242.635 95.4856 242.515Z" fill="#FFAF15"/>
<path d="M92.8081 246.894V247.099C92.8081 247.702 93.7488 247.702 93.7488 247.099V246.894C93.7488 246.291 92.8081 246.291 92.8081 246.894Z" fill="#FFAF15"/>
<path d="M84.7514 261.249C84.9565 261.104 85.1736 260.971 85.3786 260.826C85.8731 260.489 85.4148 259.681 84.9082 260.018C84.7032 260.163 84.4861 260.296 84.2811 260.44C83.7866 260.778 84.2449 261.586 84.7514 261.249Z" fill="#FFAF15"/>
<path d="M84.2087 264.711C84.5826 264.349 84.9806 264.144 85.4872 264.023C86.0781 263.89 85.8249 262.986 85.2339 263.118C84.5826 263.275 84.0278 263.577 83.5454 264.047C83.1112 264.47 83.7745 265.133 84.2087 264.711Z" fill="#FFAF15"/>
<path d="M80.3493 265.278C80.4216 265.41 80.494 265.555 80.5663 265.688C80.8437 266.231 81.6518 265.748 81.3744 265.217C81.3021 265.085 81.2297 264.94 81.1573 264.807C80.8799 264.264 80.0719 264.747 80.3493 265.278Z" fill="#FFAF15"/>
<path d="M76.7672 266.291C77.2978 266.568 77.8044 266.629 78.3833 266.52C78.9743 266.4 78.721 265.495 78.13 265.616C77.8044 265.688 77.527 265.64 77.2375 265.483C76.7069 265.205 76.2244 266.014 76.7672 266.291Z" fill="#FFAF15"/>
<path d="M84.5223 257.389C85.1495 257.316 85.7766 257.232 86.3917 257.159C86.9827 257.087 86.9948 256.146 86.3917 256.218C85.7646 256.291 85.1374 256.375 84.5223 256.448C83.9313 256.52 83.9193 257.461 84.5223 257.389Z" fill="#FFAF15"/>
<path d="M168.55 216.266C178.645 207.134 188.74 198.002 198.835 188.883C200.33 187.532 198.111 185.324 196.628 186.675C186.533 195.807 176.438 204.939 166.343 214.058C164.847 215.409 167.067 217.617 168.55 216.266Z" fill="#F1A513"/>
<path d="M202.779 230.235C212.874 221.103 222.969 211.971 233.063 202.852C234.559 201.501 232.34 199.293 230.856 200.644C220.761 209.776 210.666 218.908 200.572 228.027C199.076 229.378 201.295 231.586 202.779 230.235Z" fill="#F1A513"/>
<path d="M165.583 240.585C186.75 219.945 207.905 199.305 229.071 178.665C230.519 177.254 228.299 175.046 226.864 176.458C205.697 197.098 184.543 217.737 163.376 238.377C161.929 239.789 164.148 241.996 165.583 240.585Z" fill="#F1A513"/>
<path d="M262.612 48.0591H261.25V135.444H262.612V48.0591Z" fill="#0C3069"/>
<path d="M267.473 135.431C267.473 138.495 264.988 140.98 261.925 140.98C258.862 140.98 256.377 138.495 256.377 135.431C256.377 132.367 258.862 129.882 261.925 129.882C264.988 129.882 267.473 132.367 267.473 135.431Z" fill="#0C3069"/>
<path d="M262.009 154.045C261.913 154.045 260.104 154.033 258.789 152.706C257.909 151.825 257.463 150.607 257.463 149.075C257.463 148.665 257.788 148.339 258.198 148.339C258.608 148.339 258.934 148.665 258.934 149.075C258.934 150.197 259.235 151.077 259.826 151.668C260.719 152.549 261.997 152.573 262.009 152.573C264.084 152.573 265.76 150.884 265.76 148.821C265.76 146.759 264.072 145.07 262.009 145.07C261.599 145.07 261.274 144.744 261.274 144.334V140.257C261.274 139.847 261.599 139.521 262.009 139.521C262.42 139.521 262.745 139.847 262.745 140.257V143.646C265.278 144.008 267.232 146.192 267.232 148.821C267.232 151.704 264.892 154.045 262.009 154.045Z" fill="#0C3069"/>
<path d="M232.883 157.459C232.605 157.41 232.364 157.181 232.328 156.892C232.267 156.518 232.533 156.168 232.907 156.12L262.926 151.692C263.3 151.632 263.65 151.897 263.698 152.271C263.758 152.645 263.493 152.983 263.119 153.043L233.1 157.471C233.027 157.471 232.955 157.471 232.883 157.471V157.459Z" fill="#0C3069"/>
<path d="M290.509 167.447C290.437 167.447 290.377 167.411 290.316 167.374L262.709 152.959C262.371 152.79 262.251 152.368 262.42 152.042C262.588 151.704 262.998 151.584 263.336 151.753L290.943 166.168C291.281 166.337 291.402 166.759 291.233 167.085C291.088 167.35 290.799 167.495 290.509 167.435V167.447Z" fill="#0C3069"/>
<path d="M224.501 156.036L298.02 168.816C301.87 169.486 304.452 173.155 303.782 177.005L296.426 219.339C295.757 223.19 292.088 225.772 288.238 225.103L214.72 212.322C210.87 211.653 208.288 207.984 208.957 204.134L216.314 161.8C216.983 157.949 220.652 155.367 224.501 156.036Z" fill="white"/>
<path d="M289.255 226.097C288.785 226.097 288.314 226.061 287.832 225.976L214.828 213.286C212.644 212.912 210.751 211.706 209.472 209.896C208.194 208.087 207.712 205.892 208.086 203.708L215.346 161.886C216.13 157.386 220.424 154.358 224.922 155.142L297.927 167.833C300.11 168.207 302.003 169.413 303.282 171.222C304.56 173.032 305.043 175.227 304.669 177.411L297.408 219.233C296.708 223.25 293.199 226.097 289.255 226.097ZM223.511 156.904C220.46 156.904 217.746 159.099 217.203 162.211L209.943 204.034C209.653 205.723 210.027 207.424 211.016 208.823C212.005 210.222 213.477 211.151 215.153 211.453L288.157 224.143C291.631 224.758 294.96 222.406 295.563 218.932L302.823 177.109C303.113 175.42 302.739 173.719 301.75 172.32C300.761 170.921 299.289 169.992 297.613 169.702L224.609 157.012C224.235 156.952 223.873 156.916 223.511 156.916V156.904Z" fill="#0C3069"/>
<path d="M295.957 172.939L225.053 160.613C222.592 160.185 220.25 161.834 219.822 164.295L213.104 202.957C212.676 205.418 214.324 207.76 216.785 208.188L287.689 220.514C290.15 220.942 292.492 219.293 292.92 216.832L299.638 178.17C300.066 175.709 298.418 173.367 295.957 172.939Z" fill="#FFC452"/>
<path d="M288.35 221.489C288.025 221.489 287.699 221.465 287.373 221.405L216.805 209.136C215.322 208.883 214.031 208.063 213.163 206.832C212.295 205.602 211.957 204.106 212.222 202.622L218.88 164.286C219.411 161.234 222.329 159.171 225.393 159.702L295.961 171.97C299.024 172.501 301.074 175.42 300.544 178.484L293.886 216.821C293.633 218.304 292.813 219.595 291.583 220.464C290.63 221.139 289.508 221.489 288.35 221.489ZM287.699 219.559C288.688 219.728 289.677 219.511 290.497 218.932C291.317 218.353 291.86 217.496 292.029 216.507L298.686 178.171C299.036 176.132 297.673 174.19 295.635 173.828L225.067 161.56C223.029 161.21 221.087 162.573 220.725 164.612L214.068 202.948C213.899 203.937 214.116 204.926 214.695 205.747C215.274 206.567 216.13 207.11 217.119 207.279L287.687 219.547L287.699 219.559Z" fill="#0C3069"/>
<path d="M254.073 214.661L272.418 197.845L282.573 219.607L254.073 214.661Z" fill="white"/>
<path d="M283.647 220.427L252.711 215.047L272.623 196.796L283.647 220.427ZM255.436 214.251L281.5 218.787L272.213 198.871L255.436 214.251Z" fill="#0C3069"/>
<path d="M217.794 208.352L250.323 178.545L268.317 217.134L217.794 208.352Z" fill="white"/>
<path d="M269.391 217.955L216.432 208.75L250.528 177.495L269.391 217.955ZM219.145 207.954L267.232 216.314L250.093 179.582L219.133 207.966L219.145 207.954Z" fill="#0C3069"/>
<path d="M288.99 184.19C288.555 186.663 286.203 188.328 283.731 187.893C281.259 187.459 279.594 185.107 280.028 182.634C280.463 180.161 282.814 178.496 285.287 178.931C287.759 179.365 289.424 181.717 288.99 184.19Z" fill="white"/>
<path d="M284.527 188.593C284.226 188.593 283.924 188.569 283.635 188.521C280.824 188.026 278.931 185.348 279.425 182.538C279.667 181.174 280.414 179.992 281.548 179.196C282.682 178.4 284.045 178.086 285.407 178.328C286.77 178.569 287.952 179.317 288.748 180.451C289.544 181.585 289.846 182.948 289.617 184.311C289.375 185.674 288.628 186.856 287.494 187.652C286.614 188.267 285.588 188.593 284.527 188.593ZM284.503 179.498C283.707 179.498 282.923 179.739 282.248 180.209C281.391 180.813 280.824 181.717 280.643 182.743C280.463 183.78 280.704 184.817 281.295 185.674C281.898 186.53 282.802 187.097 283.827 187.278C284.853 187.459 285.902 187.23 286.758 186.627C287.615 186.024 288.181 185.119 288.362 184.094C288.736 181.959 287.301 179.932 285.166 179.558C284.937 179.522 284.708 179.498 284.491 179.498H284.503Z" fill="#0C3069"/>
<path d="M318.177 45.1157H249.997V52.6189H318.177V45.1157Z" fill="#FFC452"/>
<path d="M377.42 200.246H354.781V0.0964966H377.42V200.246ZM357.025 198.002H375.176V2.34022H357.025V198.014V198.002Z" fill="#0C3069"/>
<path d="M377.13 22.0633H355.059V0H377.13V22.0633ZM357.338 19.7954H374.863V2.26785H357.338V19.7954Z" fill="#0C3069"/>
<path d="M357.01 0.330026L355.406 1.93364L375.2 21.7314L376.804 20.1278L357.01 0.330026Z" fill="#0C3069"/>
<path d="M375.2 0.338543L355.406 20.1363L357.01 21.7399L376.804 1.94215L375.2 0.338543Z" fill="#0C3069"/>
<path d="M377.13 41.8707H355.059V19.8075H377.13V41.8707ZM357.338 39.6029H374.863V22.0753H357.338V39.6029Z" fill="#0C3069"/>
<path d="M357.002 20.1298L355.399 21.7334L375.193 41.5312L376.796 39.9275L357.002 20.1298Z" fill="#0C3069"/>
<path d="M375.193 20.1383L355.399 39.9361L357.002 41.5397L376.796 21.7419L375.193 20.1383Z" fill="#0C3069"/>
<path d="M377.13 61.6661H355.059V39.5908H377.13V61.6661ZM357.338 59.3983H374.863V41.8707H357.338V59.3983Z" fill="#0C3069"/>
<path d="M357.003 39.926L355.399 41.5296L375.194 61.3274L376.797 59.7238L357.003 39.926Z" fill="#0C3069"/>
<path d="M375.206 39.9466L355.411 59.7444L357.015 61.348L376.809 41.5502L375.206 39.9466Z" fill="#0C3069"/>
<path d="M377.13 81.4736H355.059V59.4103H377.13V81.4736ZM357.338 79.2057H374.863V61.6782H357.338V79.2057Z" fill="#0C3069"/>
<path d="M357.007 59.7258L355.404 61.3294L375.198 81.1272L376.801 79.5236L357.007 59.7258Z" fill="#0C3069"/>
<path d="M375.198 59.7343L355.404 79.5321L357.007 81.1357L376.801 61.3379L375.198 59.7343Z" fill="#0C3069"/>
<path d="M377.13 101.269H355.059V79.2057H377.13V101.269ZM357.338 99.0012H374.863V81.4736H357.338V99.0012Z" fill="#0C3069"/>
<path d="M357.008 79.5341L355.405 81.1377L375.199 100.935L376.802 99.3319L357.008 79.5341Z" fill="#0C3069"/>
<path d="M375.202 79.5462L355.408 99.3439L357.011 100.948L376.806 81.1498L375.202 79.5462Z" fill="#0C3069"/>
<path d="M377.13 121.076H355.059V99.0012H377.13V121.076ZM357.338 118.809H374.863V101.281H357.338V118.809Z" fill="#0C3069"/>
<path d="M357 99.3339L355.397 100.938L375.191 120.735L376.794 119.132L357 99.3339Z" fill="#0C3069"/>
<path d="M375.203 99.3545L355.409 119.152L357.012 120.756L376.806 100.958L375.203 99.3545Z" fill="#0C3069"/>
<path d="M377.13 140.872H355.059V118.809H377.13V140.872ZM357.338 138.604H374.863V121.076H357.338V138.604Z" fill="#0C3069"/>
<path d="M357.013 119.13L355.41 120.734L375.204 140.532L376.807 138.928L357.013 119.13Z" fill="#0C3069"/>
<path d="M375.195 119.154L355.401 138.952L357.005 140.556L376.799 120.758L375.195 119.154Z" fill="#0C3069"/>
<path d="M377.13 160.667H355.059V138.604H377.13V160.667ZM357.338 158.399H374.863V140.872H357.338V158.399Z" fill="#0C3069"/>
<path d="M357.005 138.93L355.402 140.534L375.196 160.331L376.8 158.728L357.005 138.93Z" fill="#0C3069"/>
<path d="M375.208 138.951L355.414 158.748L357.017 160.352L376.812 140.554L375.208 138.951Z" fill="#0C3069"/>
<path d="M377.13 180.475H355.059V158.411H377.13V180.475ZM357.338 178.207H374.863V160.679H357.338V178.207Z" fill="#0C3069"/>
<path d="M357.01 158.73L355.406 160.333L375.201 180.131L376.804 178.527L357.01 158.73Z" fill="#0C3069"/>
<path d="M375.201 158.75L355.406 178.548L357.01 180.152L376.804 160.354L375.201 158.75Z" fill="#0C3069"/>
<path d="M377.13 200.27H355.059V178.207H377.13V200.27ZM357.338 198.002H374.863V180.475H357.338V198.002Z" fill="#0C3069"/>
<path d="M357.011 178.526L355.407 180.13L375.201 199.927L376.805 198.324L357.011 178.526Z" fill="#0C3069"/>
<path d="M375.201 178.544L355.403 198.339L357.006 199.942L376.804 180.148L375.201 178.544Z" fill="#0C3069"/>
<path d="M416.521 41.5691H394.461V19.4938H416.521V41.5691ZM396.729 39.3013H414.253V21.7737H396.729V39.3013Z" fill="#0C3069"/>
<path d="M414.58 19.8406L394.79 39.6418L396.393 41.2451L416.184 21.4439L414.58 19.8406Z" fill="#0C3069"/>
<path d="M396.398 19.8357L394.794 21.4393L414.589 41.2371L416.192 39.6334L396.398 19.8357Z" fill="#0C3069"/>
<path d="M396.729 41.5691H374.67V19.4938H396.729V41.5691ZM376.937 39.3013H394.461V21.7737H376.937V39.3013Z" fill="#0C3069"/>
<path d="M394.786 19.8353L374.996 39.6366L376.599 41.2399L396.39 21.4387L394.786 19.8353Z" fill="#0C3069"/>
<path d="M376.593 19.8365L374.99 21.4401L394.784 41.2379L396.387 39.6343L376.593 19.8365Z" fill="#0C3069"/>
<path d="M376.937 41.5691H354.878V19.4938H376.937V41.5691ZM357.145 39.3013H374.67V21.7737H357.145V39.3013Z" fill="#0C3069"/>
<path d="M357.133 41.5691H335.074V19.4938H357.133V41.5691ZM337.341 39.3013H354.866V21.7737H337.341V39.3013Z" fill="#0C3069"/>
<path d="M355.195 19.8332L335.401 39.631L337.004 41.2346L356.798 21.4368L355.195 19.8332Z" fill="#0C3069"/>
<path d="M337.004 19.8417L335.401 21.4453L355.195 41.2431L356.798 39.6395L337.004 19.8417Z" fill="#0C3069"/>
<path d="M337.341 41.5691H315.282V19.4938H337.341V41.5691ZM317.55 39.3013H335.074V21.7737H317.55V39.3013Z" fill="#0C3069"/>
<path d="M335.39 19.834L315.596 39.6318L317.2 41.2354L336.994 21.4376L335.39 19.834Z" fill="#0C3069"/>
<path d="M317.208 19.834L315.605 21.4377L335.399 41.2354L337.002 39.6318L317.208 19.834Z" fill="#0C3069"/>
<path d="M317.538 41.5691H295.478V19.4938H317.538V41.5691ZM297.746 39.3013H315.27V21.7737H297.746V39.3013Z" fill="#0C3069"/>
<path d="M296.612 41.5691H276.82C276.362 41.5691 275.952 41.2917 275.771 40.8695C275.59 40.4473 275.699 39.9527 276.012 39.6391L295.804 19.8437L297.408 21.448L279.546 39.3134H296.13L315.596 19.8437L317.2 21.448L297.408 41.2434C297.191 41.4606 296.901 41.5812 296.612 41.5812V41.5691Z" fill="#0C3069"/>
<path d="M297.412 19.8263L295.809 21.4299L315.603 41.2277L317.206 39.6241L297.412 19.8263Z" fill="#0C3069"/>
<path d="M377.468 222.321H354.781V200.258H377.468V222.321ZM357.121 220.053H375.14V202.526H357.121V220.053Z" fill="#0C3069"/>
<path d="M375.478 221.984L355.131 202.188L356.771 200.584L377.13 220.379L375.478 221.984Z" fill="#0C3069"/>
<path d="M356.771 221.984L355.131 220.379L375.478 200.584L377.13 202.188L356.771 221.984Z" fill="#0C3069"/>
<path d="M377.468 301.515H354.781V279.452H377.468V301.515ZM357.121 299.247H375.14V281.72H357.121V299.247Z" fill="#0C3069"/>
<path d="M375.478 301.189L355.131 281.382L356.771 279.79L377.13 299.585L375.478 301.189Z" fill="#0C3069"/>
<path d="M356.771 301.189L355.131 299.585L375.478 279.79L377.13 281.382L356.771 301.189Z" fill="#0C3069"/>
<path d="M377.468 240.247H354.781V218.184H377.468V240.247ZM357.121 237.979H375.14V220.452H357.121V237.979Z" fill="#0C3069"/>
<path d="M375.478 239.909L355.131 220.114L356.771 218.509L377.13 238.305L375.478 239.909Z" fill="#0C3069"/>
<path d="M356.771 239.909L355.131 238.305L375.478 218.509L377.13 220.114L356.771 239.909Z" fill="#0C3069"/>
<path d="M377.468 260.042H354.781V237.979H377.468V260.042ZM357.121 257.775H375.14V240.247H357.121V257.775Z" fill="#0C3069"/>
<path d="M375.478 259.717L355.131 239.909L356.771 238.305L377.13 258.112L375.478 259.717Z" fill="#0C3069"/>
<path d="M356.771 259.717L355.131 258.112L375.478 238.305L377.13 239.909L356.771 259.717Z" fill="#0C3069"/>
<path d="M377.468 279.838H354.781V257.775H377.468V279.838ZM357.121 277.57H375.14V260.042H357.121V277.57Z" fill="#0C3069"/>
<path d="M375.478 279.512L355.131 259.717L356.771 258.112L377.13 277.908L375.478 279.512Z" fill="#0C3069"/>
<path d="M356.771 279.512L355.131 277.908L375.478 258.112L377.13 259.717L356.771 279.512Z" fill="#0C3069"/>
<path d="M124.347 120.087C126.759 120.087 126.771 116.336 124.347 116.336C121.923 116.336 121.923 120.087 124.347 120.087Z" fill="#0C3069"/>
<path d="M327.801 80.8946C330.213 80.8946 330.225 77.143 327.801 77.143C325.377 77.143 325.377 80.8946 327.801 80.8946Z" fill="#0C3069"/>
<path d="M412.022 215.168H412.854C413.831 215.168 414.772 214.299 414.736 213.286C414.687 212.273 413.916 211.404 412.854 211.404H412.022C411.045 211.404 410.104 212.273 410.141 213.286C410.189 214.299 410.961 215.168 412.022 215.168Z" fill="#0C3069"/>
<path d="M50.1248 242.696C52.537 242.696 52.549 238.944 50.1248 238.944C47.7006 238.944 47.7006 242.696 50.1248 242.696Z" fill="#0C3069"/>
<path d="M229.409 62.5467C231.821 62.5467 231.833 58.7951 229.409 58.7951C226.985 58.7951 226.985 62.5467 229.409 62.5467Z" fill="#0C3069"/>
</g>
<defs>
<clipPath id="clip0_2_2">
<rect width="483" height="304" fill="white"/>
</clipPath>
</defs>
</svg>
